<?xml version="1.0" encoding="UTF-8"?>
<svg version="1.1" xmlns="http://www.w3.org/2000/svg" viewBox="120 25 240 215" width="240" height="215">
<path d="M0 0 C1.26328125 0.03609375 2.5265625 0.0721875 3.828125 0.109375 C5.27445313 0.17898437 5.27445313 0.17898437 6.75 0.25 C5.59365397 3.93552298 4.30757105 7.25034409 2.4375 10.625 C0.17575778 15.05480281 -1.45619483 19.51717152 -2.9375 24.25 C-3.24071167 25.2097876 -3.24071167 25.2097876 -3.55004883 26.18896484 C-6.27217482 35.17209391 -7.5972188 43.73185123 -7.5 53.125 C-7.49178223 54.0931665 -7.48356445 55.06133301 -7.47509766 56.05883789 C-7.22890692 71.81372121 -3.40912569 91.30400282 8.42578125 102.890625 C9.75 104.25 9.75 104.25 9.75 106.25 C10.41 106.25 11.07 106.25 11.75 106.25 C13.47872557 107.87881673 15.1156097 109.53058361 16.75 111.25 C17.76464982 112.28089218 18.78166202 113.30946347 19.80078125 114.3359375 C20.33002197 114.87025391 20.8592627 115.40457031 21.40454102 115.95507812 C27.42741412 122.04602485 27.42741412 122.04602485 33.8125 127.75 C43.05554925 135.64469746 51.01873417 145.16826176 57.75 155.25 C58.54664063 156.42755859 58.54664063 156.42755859 59.359375 157.62890625 C62.5068342 162.55289525 64.9455145 167.68016788 67.1875 173.0625 C67.45900879 173.69704102 67.73051758 174.33158203 68.01025391 174.98535156 C69.0944583 177.7062945 69.74640847 180.04109288 69.796875 182.9765625 C67.10567053 188.8208946 57.2127245 191.31675703 51.41015625 193.515625 C30.1111272 200.30294936 6.81084462 198.48438295 -15.25 198.25 C-14.68422585 195.28860558 -14.02419279 192.46631615 -13.1875 189.5625 C-7.13519403 161.53566775 -22.657031 136.88203728 -37.25 114.25 C-39.34291025 111.19101772 -41.52336919 108.20032997 -43.72192383 105.21679688 C-53.35351083 92.02079524 -57.83922963 80.74805649 -56.25 64.25 C-51.48057305 43.61219927 -33.90005941 24.10499893 -17.9609375 10.703125 C-14.89068496 8.09551326 -12.06396038 5.27687132 -9.5625 2.12109375 C-6.32940037 -0.49487706 -4.0959139 -0.15170051 0 0 Z " fill="#A7373B" transform="translate(247.25,33.75)"/>
<path d="M0 0 C-2.75049921 2.77137586 -5.52495584 5.50917951 -8.34765625 8.20703125 C-20.7448557 20.16605526 -31.89027804 32.66453286 -38 49 C-38.33644531 49.81726563 -38.67289063 50.63453125 -39.01953125 51.4765625 C-44.04890662 65.94462862 -42.2590151 83.69592484 -35.90234375 97.359375 C-31.97693431 104.86422558 -26.8924042 111.80364308 -22.09375 118.765625 C-13.30045838 131.66725778 -4.74421395 145.03416144 0 160 C0.24234375 160.70898438 0.4846875 161.41796875 0.734375 162.1484375 C3.9777487 172.88663422 1.70393979 182.7480238 -2 193 C-18.90891916 192.38513021 -35.18534425 183.5226035 -48 173 C-48.71671875 172.41734375 -49.4334375 171.8346875 -50.171875 171.234375 C-56.23874549 166.08799521 -61.13809206 160.27679912 -66 154 C-66.495 153.40574219 -66.99 152.81148437 -67.5 152.19921875 C-78.02719027 138.94153851 -78.41350411 121.69793814 -78.375 105.625 C-78.37445618 104.77651489 -78.37391235 103.92802979 -78.37335205 103.05383301 C-78.3356985 90.30042343 -77.69540053 78.28425383 -74 66 C-73.78569336 65.24460937 -73.57138672 64.48921875 -73.35058594 63.7109375 C-67.42112771 43.06572049 -58.07681107 22.22434121 -39.14453125 10.69921875 C-27.0942795 4.18759203 -13.80744043 -0.31380546 0 0 Z " fill="#A7363B" transform="translate(213,36)"/>
<path d="M0 0 C5.68659534 0.46919103 10.14361339 1.55182905 15.1875 4.3125 C15.82751953 4.66078857 16.46753906 5.00907715 17.12695312 5.36791992 C28.29879293 11.76029667 36.94975668 20.65027348 43 32 C43.31243652 32.56638184 43.62487305 33.13276367 43.94677734 33.71630859 C49.55639724 43.93822191 53.50517434 54.50479217 57.17089844 65.55126953 C57.9666839 67.90160175 58.8041194 70.23106181 59.6640625 72.55859375 C67.83575185 94.71058461 70.1325457 117.36445126 66.6875 140.75 C66.56987305 141.55880615 66.45224609 142.3676123 66.33105469 143.20092773 C65.47764012 148.44418898 64.00485984 153.080512 62 158 C61.01 158 60.02 158 59 158 C58.30777344 156.49373047 58.30777344 156.49373047 57.6015625 154.95703125 C48.732606 136.1527153 35.05190401 120.19060204 19 107 C2.79876195 93.34445602 -12.05088771 80.58631321 -14 58 C-15.21558526 37.79983315 -11.93050585 16.84306709 0 0 Z " fill="#A7373B" transform="translate(272,38)"/>
<path d="M0 0 C0.33 0 0.66 0 1 0 C0.49202991 4.3177458 -0.19682779 8.03302114 -2 12 C-2.66 12 -3.32 12 -4 12 C-4.12375 13.134375 -4.2475 14.26875 -4.375 15.4375 C-4.58125 16.613125 -4.7875 17.78875 -5 19 C-5.66 19.33 -6.32 19.66 -7 20 C-7.69227032 22.80980673 -7.69227032 22.80980673 -8.125 26.0625 C-8.29257813 27.16722656 -8.46015625 28.27195312 -8.6328125 29.41015625 C-8.75398437 30.26480469 -8.87515625 31.11945313 -9 32 C-10.485 32.495 -10.485 32.495 -12 33 C-12.33 33.99 -12.66 34.98 -13 36 C-12.54118523 23.15318631 -6.49397592 10.86934976 0 0 Z " fill="#964447" transform="translate(153,68)"/>
<path d="M0 0 C1.26328125 0.03609375 2.5265625 0.0721875 3.828125 0.109375 C5.27445313 0.17898437 5.27445313 0.17898437 6.75 0.25 C6.09 1.57 5.43 2.89 4.75 4.25 C4.75 3.59 4.75 2.93 4.75 2.25 C1.12 2.58 -2.51 2.91 -6.25 3.25 C-6.25 3.91 -6.25 4.57 -6.25 5.25 C-6.91 5.25 -7.57 5.25 -8.25 5.25 C-8.4975 5.889375 -8.745 6.52875 -9 7.1875 C-9.4125 7.868125 -9.825 8.54875 -10.25 9.25 C-10.86875 9.37375 -11.4875 9.4975 -12.125 9.625 C-15.00487052 10.47202074 -15.80262364 11.88216567 -17.5 14.3125 C-18.02078125 15.04597656 -18.5415625 15.77945313 -19.078125 16.53515625 C-19.65820312 17.38400391 -19.65820312 17.38400391 -20.25 18.25 C-20.91 17.92 -21.57 17.59 -22.25 17.25 C-22.25 16.26 -22.25 15.27 -22.25 14.25 C-20.82795224 12.99330663 -19.39617251 11.74467752 -17.90234375 10.57421875 C-14.79279984 8.08217292 -12.02875581 5.23151941 -9.5546875 2.11328125 C-6.3272051 -0.49605622 -4.08722858 -0.15137884 0 0 Z " fill="#9A3D41" transform="translate(247.25,33.75)"/>
<path d="M0 0 C4.81740978 4.81740978 5.20459384 13.7258276 5.3125 20.25 C5.19094082 25.11236721 4.42791341 29.3592814 3 34 C2.34 34 1.68 34 1 34 C1.09539062 33.27554688 1.19078125 32.55109375 1.2890625 31.8046875 C1.39992187 30.83789062 1.51078125 29.87109375 1.625 28.875 C1.74101562 27.92367187 1.85703125 26.97234375 1.9765625 25.9921875 C2.16629765 22.97576333 2.16629765 22.97576333 1.03125 20.1875 C-0.29937424 16.07466145 -0.2194542 12.41176764 -0.125 8.125 C-0.11597656 7.34125 -0.10695312 6.5575 -0.09765625 5.75 C-0.07428063 3.83319945 -0.03841653 1.91655809 0 0 Z " fill="#A23B42" transform="translate(210,190)"/>
<path d="M0 0 C0.99 0 1.98 0 3 0 C3 0.99 3 1.98 3 3 C3.99 3 4.98 3 6 3 C7.25664978 5.90600261 8 7.79604584 8 11 C8.99 11.33 9.98 11.66 11 12 C11.71228144 13.98421259 12.36515933 15.98967123 13 18 C14.31526799 20.56983131 15.67726435 23.10648934 17.07421875 25.6328125 C18.11297486 28.28887242 17.99653986 29.37879818 17 32 C16.52691406 31.01902344 16.05382812 30.03804687 15.56640625 29.02734375 C11.64600626 20.99513364 7.49208557 13.21847567 2.79516602 5.61108398 C0 1.08226199 0 1.08226199 0 0 Z " fill="#8F4043" transform="translate(213,152)"/>
<path d="M0 0 C-4.33333333 4.33333333 -8.66666667 8.66666667 -13 13 C-13.33 12.01 -13.66 11.02 -14 10 C-12.71034824 8.62437146 -11.37310707 7.29233607 -10 6 C-9.34 6 -8.68 6 -8 6 C-8 5.01 -8 4.02 -8 3 C-9.670625 3.309375 -9.670625 3.309375 -11.375 3.625 C-12.57125 3.74875 -13.7675 3.8725 -15 4 C-15.66 3.34 -16.32 2.68 -17 2 C-11.23918159 0.7017874 -5.91260345 -0.25706972 0 0 Z " fill="#954F54" transform="translate(213,36)"/>
<path d="M0 0 C0.66 0 1.32 0 2 0 C1.84660156 1.1034375 1.69320312 2.206875 1.53515625 3.34375 C0.90498324 8.3851341 0.66239916 13.42686479 0.4375 18.5 C0.39431641 19.4178125 0.35113281 20.335625 0.30664062 21.28125 C0.20166544 23.52072061 0.09950752 25.76028092 0 28 C-0.66 28 -1.32 28 -2 28 C-4.80274608 19.4442488 -2.02896663 8.54923804 0 0 Z " fill="#95403F" transform="translate(239,68)"/>
<path d="M0 0 C1.06544301 3.19632902 1.19353531 3.97025652 0 7 C-1.31200404 8.35432675 -2.64631404 9.68733482 -4 11 C-5.23512079 13.13309192 -5.23512079 13.13309192 -6 15 C-6.66 15 -7.32 15 -8 15 C-8 14.34 -8 13.68 -8 13 C-8.66 12.67 -9.32 12.34 -10 12 C-8.52149287 10.18696196 -7.04217625 8.37458402 -5.5625 6.5625 C-4.32693359 5.04849609 -4.32693359 5.04849609 -3.06640625 3.50390625 C-1 1 -1 1 0 0 Z " fill="#9D434C" transform="translate(213,61)"/>
<path d="M0 0 C1.93897212 3.27924407 2.29325528 5.85533219 2.4140625 9.640625 C2.45273438 10.71054688 2.49140625 11.78046875 2.53125 12.8828125 C2.57765625 14.54957031 2.57765625 14.54957031 2.625 16.25 C2.66367188 17.37664062 2.70234375 18.50328125 2.7421875 19.6640625 C2.83637336 22.44254548 2.92199586 25.22102334 3 28 C0.24017273 25.44579432 -0.41302928 24.10019596 -0.6875 20.3125 C-0.75324219 19.50425781 -0.81898438 18.69601563 -0.88671875 17.86328125 C-0.92410156 17.24839844 -0.96148437 16.63351563 -1 16 C-0.34 16 0.32 16 1 16 C1 12.7 1 9.4 1 6 C0.34 6 -0.32 6 -1 6 C-0.67 4.02 -0.34 2.04 0 0 Z " fill="#944345" transform="translate(169,96)"/>
<path d="M0 0 C2.16874252 0.50603992 3.99967627 0.99983813 6 2 C6.433125 2.7425 6.86625 3.485 7.3125 4.25 C8.92715738 7.13303167 8.92715738 7.13303167 11.5625 9.5 C14.92401472 12.9477074 15.9743353 16.38450886 17 21 C13.9439938 18.10053755 11.49316661 15.06162566 9.0625 11.625 C6.18139735 7.60222677 3.2357348 3.74131836 0 0 Z " fill="#8F3C3F" transform="translate(309,162)"/>
<path d="M0 0 C4.16915278 1.38971759 4.69511721 3.49568259 6.75 7.3125 C7.38421875 8.46363281 8.0184375 9.61476562 8.671875 10.80078125 C10 14 10 14 9.703125 16.41796875 C9.47109375 16.94003906 9.2390625 17.46210938 9 18 C7 15 7 15 7 11 C6.01 11 5.02 11 4 11 C1.54176828 7.31265242 0.98757384 4.30300029 0 0 Z " fill="#964147" transform="translate(200,173)"/>
<path d="M0 0 C0.66 0 1.32 0 2 0 C2.33 1.98 2.66 3.96 3 6 C3.66 6 4.32 6 5 6 C5.81604999 7.9151579 6.62770632 9.83218834 7.4375 11.75 C7.88996094 12.81734375 8.34242188 13.8846875 8.80859375 14.984375 C9.73979553 17.3413841 10.4784072 19.52992835 11 22 C4.41955239 16.6381538 1.63975471 8.04970492 0 0 Z " fill="#924347" transform="translate(137,168)"/>
<path d="M0 0 C1.58158962 3.00887781 2.43945339 5.63672037 3 9 C2.01 9.33 1.02 9.66 0 10 C0 14.29 0 18.58 0 23 C-4.38775939 16.41836092 -1.3676868 7.32689359 0 0 Z " fill="#9F4B53" transform="translate(137,110)"/>
<path d="M0 0 C0.99 0.66 1.98 1.32 3 2 C-1.75 6 -1.75 6 -4 6 C-4.2475 6.61875 -4.495 7.2375 -4.75 7.875 C-6.20628639 10.35068687 -7.37812506 10.95125002 -10 12 C-10.33 11.01 -10.66 10.02 -11 9 C-9.68 9 -8.36 9 -7 9 C-7.33 7.68 -7.66 6.36 -8 5 C-5.31158141 2.74754119 -3.35358125 1.11786042 0 0 Z " fill="#F6E9E0" transform="translate(236,35)"/>
<path d="M0 0 C0.99 0.33 1.98 0.66 3 1 C2.67 1.99 2.34 2.98 2 4 C12.23 4 22.46 4 33 4 C33 4.33 33 4.66 33 5 C21.78 5 10.56 5 -1 5 C-0.67 3.35 -0.34 1.7 0 0 Z " fill="#8D2F34" transform="translate(234,226)"/>
<path d="M0 0 C0.99 0 1.98 0 3 0 C3.10957031 0.61746094 3.21914062 1.23492187 3.33203125 1.87109375 C4.4377266 7.77712501 5.95361435 13.35197559 8 19 C7.34 19 6.68 19 6 19 C4.99141578 16.58660204 3.99297327 14.16981325 3 11.75 C2.57074219 10.72712891 2.57074219 10.72712891 2.1328125 9.68359375 C0.70654506 6.18584265 0 3.83099811 0 0 Z " fill="#FCEAE5" transform="translate(241,106)"/>
<path d="M0 0 C2.53199972 2.53199972 3.11946497 4.54559335 4 8 C3.875 10.75 3.875 10.75 3 13 C1.25 14.375 1.25 14.375 -1 15 C-3.75 14.625 -3.75 14.625 -6 14 C-3.35261084 12.5393715 -2.10551666 12 1 12 C0.84402344 11.21753906 0.68804687 10.43507812 0.52734375 9.62890625 C0.23537109 8.11103516 0.23537109 8.11103516 -0.0625 6.5625 C-0.25972656 5.55316406 -0.45695312 4.54382813 -0.66015625 3.50390625 C-0.77230469 2.67761719 -0.88445312 1.85132813 -1 1 C-0.67 0.67 -0.34 0.34 0 0 Z " fill="#93484C" transform="translate(313,206)"/>
<path d="M0 0 C0.33 0 0.66 0 1 0 C1.12375 1.2375 1.2475 2.475 1.375 3.75 C1.75746305 6.8762197 2.30549523 9.28879237 4 12 C3.67 12.33 3.34 12.66 3 13 C2.96834118 15.52366033 3.06824712 18.03270105 3.16015625 20.5546875 C3 23 3 23 1 26 C0.14304033 20.11599345 -0.12539234 14.44090708 -0.0625 8.5 C-0.05798828 7.67757812 -0.05347656 6.85515625 -0.04882812 6.0078125 C-0.03718489 4.00517604 -0.01925556 2.00257773 0 0 Z " fill="#9D4953" transform="translate(258,78)"/>
<path d="M0 0 C5.52002717 3.94287655 9.27437628 8.74273155 12 15 C11.67 15.99 11.34 16.98 11 18 C9.82767315 16.3790787 8.6622923 14.75313167 7.5 13.125 C6.8503125 12.22007813 6.200625 11.31515625 5.53125 10.3828125 C4 8 4 8 4 6 C3.01 5.67 2.02 5.34 1 5 C0.67 3.35 0.34 1.7 0 0 Z " fill="#914E52" transform="translate(303,55)"/>
<path d="M0 0 C0.33 0 0.66 0 1 0 C1.33 10.56 1.66 21.12 2 32 C1.67 31.01 1.34 30.02 1 29 C0.01 29.33 -0.98 29.66 -2 30 C-1.84152588 29.13036621 -1.68305176 28.26073242 -1.51977539 27.36474609 C-1.04102247 24.26555738 -0.80141577 21.29476181 -0.68359375 18.1640625 C-0.64169922 17.10058594 -0.59980469 16.03710938 -0.55664062 14.94140625 C-0.51732422 13.84699219 -0.47800781 12.75257813 -0.4375 11.625 C-0.39431641 10.50738281 -0.35113281 9.38976562 -0.30664062 8.23828125 C-0.20102589 5.49229801 -0.0989203 2.74623119 0 0 Z " fill="#DEB4B9" transform="translate(134,132)"/>
<path d="M0 0 C0.66 0 1.32 0 2 0 C2.21133202 7.04440079 2.07965362 13.24112575 0 20 C-0.66 20 -1.32 20 -2 20 C-1.34 13.4 -0.68 6.8 0 0 Z " fill="#964B51" transform="translate(213,204)"/>
<path d="M0 0 C0.33 0 0.66 0 1 0 C1.19820989 4.02037968 1.3816467 8.04130512 1.5625 12.0625 C1.61857422 13.19623047 1.67464844 14.32996094 1.73242188 15.49804688 C1.97983976 21.15566921 2.09078977 26.43293223 1 32 C0.67 32 0.34 32 0 32 C-0.96012994 24.70541526 -0.98855619 17.71100191 -0.5625 10.375 C-0.51029297 9.37082031 -0.45808594 8.36664063 -0.40429688 7.33203125 C-0.27625404 4.88757705 -0.14139033 2.44371218 0 0 Z " fill="#9E3E47" transform="translate(136,134)"/>
<path d="M0 0 C4.62 0 9.24 0 14 0 C13.34 1.32 12.68 2.64 12 4 C12 3.34 12 2.68 12 2 C8.37 2.33 4.74 2.66 1 3 C1 3.66 1 4.32 1 5 C0.34 4.67 -0.32 4.34 -1 4 C-0.67 2.68 -0.34 1.36 0 0 Z " fill="#AB5869" transform="translate(240,34)"/>
<path d="M0 0 C2.31 0 4.62 0 7 0 C7 0.66 7 1.32 7 2 C9.31 2.33 11.62 2.66 14 3 C14 3.66 14 4.32 14 5 C8.72684667 4.5547115 3.98229776 3.91626837 -1 2 C-0.67 1.34 -0.34 0.68 0 0 Z " fill="#994A50" transform="translate(197,224)"/>
<path d="M0 0 C0.433125 0.495 0.86625 0.99 1.3125 1.5 C2.99740483 3.33218192 2.99740483 3.33218192 6 3 C6.20496094 3.55429688 6.40992188 4.10859375 6.62109375 4.6796875 C6.89050781 5.40414062 7.15992188 6.12859375 7.4375 6.875 C7.83775391 7.95394531 7.83775391 7.95394531 8.24609375 9.0546875 C8.97916854 11.03648845 8.97916854 11.03648845 10 13 C6.32943063 11.52202738 4.58914217 9.52384523 2.25 6.375 C1.63640625 5.55773437 1.0228125 4.74046875 0.390625 3.8984375 C-0.06828125 3.27195312 -0.5271875 2.64546875 -1 2 C-0.67 1.34 -0.34 0.68 0 0 Z " fill="#924140" transform="translate(266,117)"/>
<path d="M0 0 C0 0.66 0 1.32 0 2 C-6.27087737 5.71607548 -10.75460274 6.53449652 -18 6 C-14.72828292 4.24560099 -11.39577958 3.04282615 -7.875 1.875 C-6.82054687 1.52179688 -5.76609375 1.16859375 -4.6796875 0.8046875 C-2 0 -2 0 0 0 Z " fill="#F6DDDB" transform="translate(306,224)"/>
<path d="M0 0 C0.66 0.33 1.32 0.66 2 1 C2 1.66 2 2.32 2 3 C1.34 3 0.68 3 0 3 C0 7.29 0 11.58 0 16 C-0.99 16 -1.98 16 -3 16 C-2.57910004 10.39538469 -2.08386889 5.27913453 0 0 Z " fill="#964D4E" transform="translate(262,60)"/>
<path d="M0 0 C1.19799449 4.14659373 0.8896192 7.99369047 0.5625 12.25 C0.48418945 13.36761719 0.48418945 13.36761719 0.40429688 14.5078125 C0.2751783 16.33894861 0.13834886 18.16953813 0 20 C-0.33 20 -0.66 20 -1 20 C-2.0712828 13.97403427 -2.09945415 8.11090483 -2 2 C-1.34 2 -0.68 2 0 2 C0 1.34 0 0.68 0 0 Z " fill="#FDF1EA" transform="translate(134,128)"/>
<path d="M0 0 C0.99 0 1.98 0 3 0 C1.27933894 5.44876003 -0.84705349 10.71169451 -3 16 C-4.22142857 12.49857145 -3.75961766 10.36212766 -2.625 6.875 C-2.34914062 6.00617188 -2.07328125 5.13734375 -1.7890625 4.2421875 C-1 2 -1 2 0 0 Z " fill="#924144" transform="translate(177,72)"/>
<path d="M0 0 C2.14553377 3.21830065 2.29583868 4.26786507 2.3125 8 C2.32925781 8.86625 2.34601563 9.7325 2.36328125 10.625 C2 13 2 13 -1 16 C-0.67 10.72 -0.34 5.44 0 0 Z " fill="#FBE7E5" transform="translate(339,168)"/>
<path d="M0 0 C3.66161578 1.22053859 4.16270474 2.36782304 6.1875 5.5625 C6.71730469 6.38878906 7.24710938 7.21507812 7.79296875 8.06640625 C8.19128906 8.70449219 8.58960938 9.34257812 9 10 C8.34 10.66 7.68 11.32 7 12 C6.34 12 5.68 12 5 12 C4.72285156 11.30132812 4.44570312 10.60265625 4.16015625 9.8828125 C3.79792969 8.97273437 3.43570313 8.06265625 3.0625 7.125 C2.70285156 6.22007812 2.34320313 5.31515625 1.97265625 4.3828125 C1.05098738 2.03862333 1.05098738 2.03862333 0 0 Z " fill="#914341" transform="translate(184,148)"/>
<path d="M0 0 C0.66 0.66 1.32 1.32 2 2 C-1.33333333 5.33333333 -4.66666667 8.66666667 -8 12 C-7.67 10.35 -7.34 8.7 -7 7 C-6.01 6.67 -5.02 6.34 -4 6 C-4 4.35 -4 2.7 -4 1 C-2.125 0.375 -2.125 0.375 0 0 Z " fill="#F9EBE3" transform="translate(164,51)"/>
<path d="M0 0 C0.66 0 1.32 0 2 0 C1.54636829 1.58468677 1.08688548 3.16769924 0.625 4.75 C0.36976563 5.63171875 0.11453125 6.5134375 -0.1484375 7.421875 C-0.9209934 9.76080572 -1.83625676 11.83442562 -3 14 C-3.33 12.02 -3.66 10.04 -4 8 C-3.34 8 -2.68 8 -2 8 C-2 6.02 -2 4.04 -2 2 C-1.34 2 -0.68 2 0 2 C0 1.34 0 0.68 0 0 Z " fill="#9E494D" transform="translate(246,46)"/>
<path d="M0 0 C2.42130331 2.42130331 2.52840504 3.80111377 3.125 7.125 C3.29257813 8.03507812 3.46015625 8.94515625 3.6328125 9.8828125 C3.81457031 10.93082031 3.81457031 10.93082031 4 12 C0.91910327 9.22719294 -0.68775452 6.93673644 -2 3 C-1.34 3 -0.68 3 0 3 C0 2.01 0 1.02 0 0 Z " fill="#923E45" transform="translate(195,118)"/>
<path d="M0 0 C3.35595828 0.59927826 5.37801226 1.84622436 8 4 C7.34 5.32 6.68 6.64 6 8 C4.99403703 7.0479279 3.99538437 6.08812654 3 5.125 C2.443125 4.59132812 1.88625 4.05765625 1.3125 3.5078125 C0 2 0 2 0 0 Z " fill="#A84A51" transform="translate(156,199)"/>
<path d="M0 0 C0.66 0.33 1.32 0.66 2 1 C1.74337755 2.44010481 1.46909179 3.8770687 1.1875 5.3125 C1.03667969 6.11300781 0.88585937 6.91351563 0.73046875 7.73828125 C-0.07572236 10.23445587 -1.02052002 11.32422106 -3 13 C-3.33 11.68 -3.66 10.36 -4 9 C-3.34 8.67 -2.68 8.34 -2 8 C-1.31527335 6.11235097 -1.31527335 6.11235097 -0.875 3.9375 C-0.70742188 3.20402344 -0.53984375 2.47054687 -0.3671875 1.71484375 C-0.24601562 1.14894531 -0.12484375 0.58304688 0 0 Z " fill="#964A53" transform="translate(335,184)"/>
<path d="M0 0 C0.99 0 1.98 0 3 0 C3 0.99 3 1.98 3 3 C3.99 3 4.98 3 6 3 C7.35439668 5.70879335 7.06501451 8.00933268 7 11 C4.04250209 7.53258866 1.92151848 4.13126473 0 0 Z " fill="#954950" transform="translate(213,152)"/>
<path d="M0 0 C0.33 0 0.66 0 1 0 C0.49202991 4.3177458 -0.19682779 8.03302114 -2 12 C-2.66 11.67 -3.32 11.34 -4 11 C-3.49172849 6.62886504 -2.54826592 3.61004338 0 0 Z " fill="#9A474B" transform="translate(153,68)"/>
<path d="M0 0 C0.66 0.33 1.32 0.66 2 1 C1.67 3.97 1.34 6.94 1 10 C0.34 10 -0.32 10 -1 10 C-3.125 5.375 -3.125 5.375 -2 2 C-1.34 1.34 -0.68 0.68 0 0 Z " fill="#993C45" transform="translate(235,184)"/>
<path d="M0 0 C2.66666667 2.66666667 5.33333333 5.33333333 8 8 C7.67 8.99 7.34 9.98 7 11 C5.5 9.625 5.5 9.625 4 8 C4 7.34 4 6.68 4 6 C3.01 6.33 2.02 6.66 1 7 C0.67 4.69 0.34 2.38 0 0 Z " fill="#F8E9DF" transform="translate(308,161)"/>
<path d="M0 0 C0.66 0 1.32 0 2 0 C3.5078125 2.1875 3.5078125 2.1875 5.125 5 C5.66382813 5.928125 6.20265625 6.85625 6.7578125 7.8125 C7.37269531 8.8953125 7.37269531 8.8953125 8 10 C7.01 10 6.02 10 5 10 C5 9.01 5 8.02 5 7 C4.01 6.67 3.02 6.34 2 6 C2 5.34 2 4.68 2 4 C1.34 4 0.68 4 0 4 C0 2.68 0 1.36 0 0 Z " fill="#93444A" transform="translate(193,161)"/>
<path d="M0 0 C1.04211409 3.12634226 0.99926113 4.04848841 0.25 7.125 C0.01023438 8.18074219 0.01023438 8.18074219 -0.234375 9.2578125 C-0.48703125 9.83273438 -0.7396875 10.40765625 -1 11 C-1.99 11.33 -2.98 11.66 -4 12 C-3.45660208 7.43545749 -2.20536179 4.0271824 0 0 Z " fill="#903A43" transform="translate(149,76)"/>
<path d="M0 0 C0.33 0 0.66 0 1 0 C1.33 6.93 1.66 13.86 2 21 C-1 18 -1 18 -1.2487793 16.00708008 C-1.16237183 14.89949341 -1.16237183 14.89949341 -1.07421875 13.76953125 C-1.01943359 12.96708984 -0.96464844 12.16464844 -0.90820312 11.33789062 C-0.83537109 10.50451172 -0.76253906 9.67113281 -0.6875 8.8125 C-0.62626953 7.96751953 -0.56503906 7.12253906 -0.50195312 6.25195312 C-0.34881209 4.16687905 -0.17625843 2.08324724 0 0 Z " fill="#F8DBDC" transform="translate(257,79)"/>
<path d="M0 0 C3.78520613 0.54074373 5.59177555 2.07572746 8 5 C8 5.99 8 6.98 8 8 C4.63820226 6.55922954 2.40843732 4.75249979 0 2 C0 1.34 0 0.68 0 0 Z " fill="#98404B" transform="translate(301,152)"/>
<path d="M0 0 C1.90318884 2.85478326 2.4619099 4.41941308 3.125 7.6875 C3.29257812 8.49574219 3.46015625 9.30398437 3.6328125 10.13671875 C3.75398438 10.75160156 3.87515625 11.36648437 4 12 C3.01 12.33 2.02 12.66 1 13 C0.67 8.71 0.34 4.42 0 0 Z " fill="#974A4A" transform="translate(331,111)"/>
<path d="M0 0 C0.33 0 0.66 0 1 0 C1.33 5.28 1.66 10.56 2 16 C1.34 15.67 0.68 15.34 0 15 C0 14.01 0 13.02 0 12 C-0.66 12 -1.32 12 -2 12 C-1.34 8.04 -0.68 4.08 0 0 Z " fill="#F0CFD2" transform="translate(190,104)"/>
<path d="M0 0 C0.66 0.33 1.32 0.66 2 1 C-0.475 5.455 -0.475 5.455 -3 10 C-3.66 9.67 -4.32 9.34 -5 9 C-4.67 7.02 -4.34 5.04 -4 3 C-3.01 3 -2.02 3 -1 3 C-0.67 2.01 -0.34 1.02 0 0 Z " fill="#F7E7E3" transform="translate(153,65)"/>
<path d="M0 0 C1.04449911 3.13349732 0.93423645 3.98968256 0 7 C-1.32 7 -2.64 7 -4 7 C-3.43628586 3.73045798 -2.50037734 2.17424117 0 0 Z " fill="#963D42" transform="translate(213,61)"/>
<path d="M0 0 C4.08963819 2.28538605 7.46362104 4.95706926 11 8 C10.01 8.66 9.02 9.32 8 10 C8 9.34 8 8.68 8 8 C7.34 8 6.68 8 6 8 C1.23255814 3.69767442 1.23255814 3.69767442 0 0 Z " fill="#96454A" transform="translate(292,46)"/>
<path d="M0 0 C1.12894876 0.93274109 2.25300876 1.87140122 3.375 2.8125 C4.00148438 3.33457031 4.62796875 3.85664063 5.2734375 4.39453125 C7 6 7 6 9 9 C7.68 9 6.36 9 5 9 C4.731875 8.195625 4.46375 7.39125 4.1875 6.5625 C3.795625 5.716875 3.40375 4.87125 3 4 C2.01 3.67 1.02 3.34 0 3 C0 2.01 0 1.02 0 0 Z " fill="#8F3C3A" transform="translate(269,151)"/>
<path d="M0 0 C1.953125 0.85546875 1.953125 0.85546875 4 2 C5.07999732 5.32999173 5.09944115 8.51955981 5 12 C2.65085508 9.65085508 2.26859643 8.04320554 1.375 4.875 C1.11460937 3.96492188 0.85421875 3.05484375 0.5859375 2.1171875 C0.39257812 1.41851562 0.19921875 0.71984375 0 0 Z " fill="#F9DDDC" transform="translate(323,88)"/>
<path d="M0 0 C0.95465783 2.16967689 1.14401212 3.56328793 0.3984375 5.82421875 C-0.35870385 7.5684743 -1.17609198 9.28627131 -2 11 C-2.99 11 -3.98 11 -5 11 C-3.77472971 6.94718288 -2.30119506 3.55639236 0 0 Z " fill="#F4DBD2" transform="translate(182,69)"/>
<path d="M0 0 C0.33 0 0.66 0 1 0 C2.32854177 5.9180497 1.66464729 8.77729131 -1 14 C-2.13732426 10.59598052 -1.83989957 8.22543336 -1.0625 4.75 C-0.86785156 3.85796875 -0.67320312 2.9659375 -0.47265625 2.046875 C-0.31667969 1.37140625 -0.16070312 0.6959375 0 0 Z " fill="#F4DED7" transform="translate(242,62)"/>
<path d="M0 0 C0.598125 0.226875 1.19625 0.45375 1.8125 0.6875 C0.1625 2.6675 -1.4875 4.6475 -3.1875 6.6875 C-3.8475 6.3575 -4.5075 6.0275 -5.1875 5.6875 C-5.1875 2.6875 -5.1875 2.6875 -3.9375 0.9375 C-2.1875 -0.3125 -2.1875 -0.3125 0 0 Z " fill="#A43F4B" transform="translate(230.1875,45.3125)"/>
<path d="M0 0 C0.33 0 0.66 0 1 0 C1.125 7.75 1.125 7.75 0 10 C-0.66 10 -1.32 10 -2 10 C-2.33 10.99 -2.66 11.98 -3 13 C-2.45144652 8.428721 -1.58255197 4.32564205 0 0 Z " fill="#F1CFD0" transform="translate(175,82)"/>
<path d="M0 0 C1.67542976 0.28604898 3.34385343 0.61781233 5 1 C3.37660195 2.70884005 1.70680947 4.37446717 0 6 C-0.66 6 -1.32 6 -2 6 C-1.125 1.125 -1.125 1.125 0 0 Z " fill="#B0313E" transform="translate(168,52)"/>
<path d="M0 0 C1.34173403 0.92543709 2.67320159 1.86577405 4 2.8125 C5.11375 3.59560547 5.11375 3.59560547 6.25 4.39453125 C7.11625 5.18923828 7.11625 5.18923828 8 6 C8 6.99 8 7.98 8 9 C7.67 8.34 7.34 7.68 7 7 C6.401875 6.896875 5.80375 6.79375 5.1875 6.6875 C2.03292395 5.69606181 0.88326368 3.62311727 -1 1 C-0.67 0.67 -0.34 0.34 0 0 Z " fill="#FBE5E4" transform="translate(157,202)"/>
<path d="M0 0 C3.00617269 3.00617269 2.59585316 5.82381598 3 10 C2.01 10 1.02 10 0 10 C0 6.7 0 3.4 0 0 Z " fill="#9D464D" transform="translate(210,190)"/>
<path d="M0 0 C0.66 0 1.32 0 2 0 C2 1.98 2 3.96 2 6 C2.66 6 3.32 6 4 6 C4 7.65 4 9.3 4 11 C3.34 11 2.68 11 2 11 C0.57741188 7.17679443 -0.24042276 4.08718695 0 0 Z " fill="#8D4040" transform="translate(260,101)"/>
<path d="M0 0 C2.14336161 3.4766338 2.21277626 6.21229195 2.125 10.25 C2.10695312 11.32765625 2.08890625 12.4053125 2.0703125 13.515625 C2.03550781 14.74539062 2.03550781 14.74539062 2 16 C1.67 16 1.34 16 1 16 C1 12.7 1 9.4 1 6 C0.34 6 -0.32 6 -1 6 C-0.67 4.02 -0.34 2.04 0 0 Z " fill="#AC595B" transform="translate(169,96)"/>
<path d="M0 0 C5.55410691 1.29595828 5.55410691 1.29595828 7.1875 3.875 C8 6 8 6 7 9 C5.83037314 7.69013727 4.66437056 6.3770374 3.5 5.0625 C2.8503125 4.33160156 2.200625 3.60070312 1.53125 2.84765625 C0 1 0 1 0 0 Z " fill="#9F4C4F" transform="translate(309,162)"/>
<path d="M0 0 C2 1 2 1 3.1875 3.3125 C4.03624754 6.11989571 3.99928333 7.301935 3 10 C0.64551835 7.44931155 0.01672076 6.28982642 -0.1875 2.75 C-0.125625 1.8425 -0.06375 0.935 0 0 Z " fill="#993E49" transform="translate(324,94)"/>
<path d="M0 0 C4.59306496 1.4859916 7.43569245 3.85014682 11 7 C10.34 7.66 9.68 8.32 9 9 C7.49704815 7.69088122 5.99770689 6.37761608 4.5 5.0625 C3.6646875 4.33160156 2.829375 3.60070313 1.96875 2.84765625 C1.3190625 2.23792969 0.669375 1.62820312 0 1 C0 0.67 0 0.34 0 0 Z " fill="#FADEE3" transform="translate(297,49)"/>
<path d="M0 0 C0.99 0.33 1.98 0.66 3 1 C3.33 2.65 3.66 4.3 4 6 C2.35 6.66 0.7 7.32 -1 8 C-0.67 5.36 -0.34 2.72 0 0 Z " fill="#F7E6E2" transform="translate(316,213)"/>
<path d="M0 0 C1.32 0.33 2.64 0.66 4 1 C4 2.32 4 3.64 4 5 C4.66 5 5.32 5 6 5 C5.67 6.32 5.34 7.64 5 9 C3.35 6.03 1.7 3.06 0 0 Z " fill="#F6DED7" transform="translate(189,152)"/>
<path d="M0 0 C4.875 4.625 4.875 4.625 6 8 C5.01 8 4.02 8 3 8 C0.19744677 5.0936485 0 4.21174952 0 0 Z " fill="#F7E2E1" transform="translate(204,140)"/>
<path d="M0 0 C0.99 0.33 1.98 0.66 3 1 C2.01 3.97 1.02 6.94 0 10 C-0.33 10 -0.66 10 -1 10 C-1.125 2.25 -1.125 2.25 0 0 Z " fill="#F9E4DC" transform="translate(141,88)"/>
<path d="M0 0 C0.66 1.32 1.32 2.64 2 4 C0.6875 5.5 0.6875 5.5 -1 7 C-1.99 7 -2.98 7 -4 7 C-2.79618552 4.50638429 -1.54571278 2.31856917 0 0 Z " fill="#A04E4A" transform="translate(159,59)"/>
<path d="M0 0 C0.33 0.66 0.66 1.32 1 2 C-0.98 4.31 -2.96 6.62 -5 9 C-5.66 8.67 -6.32 8.34 -7 8 C-4.69 5.36 -2.38 2.72 0 0 Z " fill="#F7DFE1" transform="translate(197,51)"/>
<path d="M0 0 C2.50298434 2.93828597 3.46930939 5.17902761 4 9 C3.01 9.495 3.01 9.495 2 10 C1.67 7.69 1.34 5.38 1 3 C0.01 2.67 -0.98 2.34 -2 2 C-1.34 2 -0.68 2 0 2 C0 1.34 0 0.68 0 0 Z " fill="#9F4E54" transform="translate(206,181)"/>
<path d="M0 0 C3.23739279 1.6186964 4.42244771 4.84489543 6 8 C3.23737447 7.6189482 2.15856106 7.16402868 0.1875 5.125 C-0.204375 4.42375 -0.59625 3.7225 -1 3 C-0.67 2.01 -0.34 1.02 0 0 Z " fill="#933F46" transform="translate(207,140)"/>
<path d="M0 0 C2.64465038 3.1254959 3.84414715 6.08788267 5 10 C2 9 2 9 0.8125 6.6875 C0 4 0 4 0 0 Z " fill="#93454C" transform="translate(175,131)"/>
<path d="M0 0 C0.66 0 1.32 0 2 0 C2.99 3.3 3.98 6.6 5 10 C2.3651481 7.54080489 0.25483449 5.42227589 -1 2 C-0.67 1.34 -0.34 0.68 0 0 Z " fill="#9A4348" transform="translate(201,131)"/>
<path d="M0 0 C0.33 0 0.66 0 1 0 C1 2.64 1 5.28 1 8 C-0.32 8.33 -1.64 8.66 -3 9 C-2.01 6.03 -1.02 3.06 0 0 Z " fill="#9C4E55" transform="translate(196,85)"/>
<path d="M0 0 C2.49415272 0.99766109 3.78740335 1.68616685 5.3125 3.9375 C6 6 6 6 5 9 C4.16396622 7.68921847 3.3312426 6.37632511 2.5 5.0625 C2.0359375 4.33160156 1.571875 3.60070312 1.09375 2.84765625 C0 1 0 1 0 0 Z " fill="#8F3F41" transform="translate(309,64)"/>
<path d="M0 0 C0.66 0.33 1.32 0.66 2 1 C0.02 3.97 0.02 3.97 -2 7 C-3.32 6.67 -4.64 6.34 -6 6 C-4.02 4.02 -2.04 2.04 0 0 Z " fill="#954A4C" transform="translate(166,52)"/>
<path d="M0 0 C0.99 0.33 1.98 0.66 3 1 C1.35 3.64 -0.3 6.28 -2 9 C-2.66 8.67 -3.32 8.34 -4 8 C-4 7.34 -4 6.68 -4 6 C-3.34 5.67 -2.68 5.34 -2 5 C-1.27840576 3.35636866 -0.60648579 1.68949614 0 0 Z " fill="#F4E1DA" transform="translate(269,39)"/>
<path d="M0 0 C0 3 0 3 -1.25 4.75 C-3 6 -3 6 -5.1875 5.6875 C-5.785625 5.460625 -6.38375 5.23375 -7 5 C-2.25 0 -2.25 0 0 0 Z " fill="#F8E1E6" transform="translate(212,38)"/>
<path d="M0 0 C2.97 0.495 2.97 0.495 6 1 C6.33 1.99 6.66 2.98 7 4 C4.69 3.67 2.38 3.34 0 3 C0 2.01 0 1.02 0 0 Z " fill="#F5EAEC" transform="translate(208,33)"/>
<path d="M0 0 C2.27521866 2.16687491 4.15794162 4.45620509 6 7 C5.34 8.32 4.68 9.64 4 11 C3.32880451 9.5437455 2.66318193 8.08492133 2 6.625 C1.62875 5.81289062 1.2575 5.00078125 0.875 4.1640625 C0 2 0 2 0 0 Z " fill="#9D4D52" transform="translate(302,186)"/>
<path d="M0 0 C0.33 0.66 0.66 1.32 1 2 C0.22265625 3.7265625 0.22265625 3.7265625 -0.9375 5.625 C-1.618125 6.73875 -2.29875 7.8525 -3 9 C-3.99 8.67 -4.98 8.34 -6 8 C-4.02 5.36 -2.04 2.72 0 0 Z " fill="#F9DADB" transform="translate(189,60)"/>
<path d="M0 0 C2.96175123 0.61277612 4.38058783 1.25372522 7 3 C6.67 3.99 6.34 4.98 6 6 C3.97945196 4.35830472 1.97956942 2.69088222 0 1 C0 0.67 0 0.34 0 0 Z " fill="#945253" transform="translate(164,207)"/>
<path d="M0 0 C2.15377564 2.62198774 3.40072174 4.64404172 4 8 C3.01 7.67 2.02 7.34 1 7 C1 5.68 1 4.36 1 3 C-0.32 2.67 -1.64 2.34 -3 2 C-2.01 2 -1.02 2 0 2 C0 1.34 0 0.68 0 0 Z " fill="#9B4952" transform="translate(309,197)"/>
<path d="M0 0 C2.875 0.25 2.875 0.25 6 1 C7.375 3.0625 7.375 3.0625 8 5 C5 5 5 5 2.3125 2.5 C1.549375 1.675 0.78625 0.85 0 0 Z " fill="#974E51" transform="translate(287,141)"/>
<path d="M0 0 C0.66 0 1.32 0 2 0 C2 1.32 2 2.64 2 4 C2.66 4 3.32 4 4 4 C3.67 6.31 3.34 8.62 3 11 C2.67 11 2.34 11 2 11 C1.34 7.37 0.68 3.74 0 0 Z " fill="#FAE3E3" transform="translate(336,126)"/>
<path d="M0 0 C0.33 0.99 0.66 1.98 1 3 C-0.65 4.65 -2.3 6.3 -4 8 C-3.50168276 4.31245243 -2.89932357 2.39509338 0 0 Z " fill="#944249" transform="translate(184,64)"/>
<path d="M0 0 C0 0.66 0 1.32 0 2 C-0.66 2 -1.32 2 -2 2 C-2 2.99 -2 3.98 -2 5 C-3.65 5 -5.3 5 -7 5 C-2.25 0 -2.25 0 0 0 Z " fill="#95474A" transform="translate(175,47)"/>
</svg>
